<svg width="35" height="35" viewBox="0 0 35 35" fill="none" xmlns="http://www.w3.org/2000/svg">
<path fill-rule="evenodd" clip-rule="evenodd" d="M0 34.186V0H1.62791V32.5581H34.186V34.186H0ZM6.51163 2.44186C6.51163 1.99233 6.87605 1.62791 7.32558 1.62791C7.77512 1.62791 8.13953 1.99233 8.13953 2.44186C8.13953 2.89139 7.77512 3.25581 7.32558 3.25581C6.87605 3.25581 6.51163 2.89139 6.51163 2.44186ZM15.4651 1.62791C15.0156 1.62791 14.6512 1.99233 14.6512 2.44186C14.6512 2.89139 15.0156 3.25581 15.4651 3.25581C15.9147 3.25581 16.2791 2.89139 16.2791 2.44186C16.2791 1.99233 15.9147 1.62791 15.4651 1.62791ZM22.7907 2.44186C22.7907 1.99233 23.1551 1.62791 23.6047 1.62791C24.0542 1.62791 24.4186 1.99233 24.4186 2.44186C24.4186 2.89139 24.0542 3.25581 23.6047 3.25581C23.1551 3.25581 22.7907 2.89139 22.7907 2.44186ZM31.7442 1.62791C31.2947 1.62791 30.9302 1.99233 30.9302 2.44186C30.9302 2.89139 31.2947 3.25581 31.7442 3.25581C32.1937 3.25581 32.5581 2.89139 32.5581 2.44186C32.5581 1.99233 32.1937 1.62791 31.7442 1.62791ZM31.4072 8.61646C31.702 8.313 32.1034 8.13624 32.5263 8.12364C33.1975 8.10385 33.812 8.49812 34.0737 9.11647C34.3354 9.73483 34.1906 10.4504 33.7091 10.9184L24.7556 19.8719C24.1199 20.5074 23.0894 20.5074 22.4537 19.8719L15.4651 12.8834L6.0347 22.3138C5.62639 22.739 5.02008 22.9104 4.4496 22.7616C3.87911 22.6129 3.4336 22.1674 3.28488 21.5969C3.13616 21.0264 3.30747 20.4201 3.73274 20.0118L14.3141 9.43042C14.9499 8.79493 15.9804 8.79493 16.6161 9.43042L23.6047 16.419L31.4072 8.61646ZM7.32558 9.76744C6.87605 9.76744 6.51163 10.1319 6.51163 10.5814C6.51163 11.0309 6.87605 11.3953 7.32558 11.3953C7.77512 11.3953 8.13953 11.0309 8.13953 10.5814C8.13953 10.1319 7.77512 9.76744 7.32558 9.76744ZM22.7907 10.5814C22.7907 10.1319 23.1551 9.76744 23.6047 9.76744C24.0542 9.76744 24.4186 10.1319 24.4186 10.5814C24.4186 11.0309 24.0542 11.3953 23.6047 11.3953C23.1551 11.3953 22.7907 11.0309 22.7907 10.5814ZM15.4651 17.907C15.0156 17.907 14.6512 18.2714 14.6512 18.7209C14.6512 19.1705 15.0156 19.5349 15.4651 19.5349C15.9147 19.5349 16.2791 19.1705 16.2791 18.7209C16.2791 18.2714 15.9147 17.907 15.4651 17.907ZM30.9302 18.7209C30.9302 18.2714 31.2947 17.907 31.7442 17.907C32.1937 17.907 32.5581 18.2714 32.5581 18.7209C32.5581 19.1705 32.1937 19.5349 31.7442 19.5349C31.2947 19.5349 30.9302 19.1705 30.9302 18.7209ZM7.32558 26.0465C6.87605 26.0465 6.51163 26.4109 6.51163 26.8605C6.51163 27.31 6.87605 27.6744 7.32558 27.6744C7.77512 27.6744 8.13953 27.31 8.13953 26.8605C8.13953 26.4109 7.77512 26.0465 7.32558 26.0465ZM14.6512 26.8605C14.6512 26.4109 15.0156 26.0465 15.4651 26.0465C15.9147 26.0465 16.2791 26.4109 16.2791 26.8605C16.2791 27.31 15.9147 27.6744 15.4651 27.6744C15.0156 27.6744 14.6512 27.31 14.6512 26.8605ZM23.6047 26.0465C23.1551 26.0465 22.7907 26.4109 22.7907 26.8605C22.7907 27.31 23.1551 27.6744 23.6047 27.6744C24.0542 27.6744 24.4186 27.31 24.4186 26.8605C24.4186 26.4109 24.0542 26.0465 23.6047 26.0465ZM30.9302 26.8605C30.9302 26.4109 31.2947 26.0465 31.7442 26.0465C32.1937 26.0465 32.5581 26.4109 32.5581 26.8605C32.5581 27.31 32.1937 27.6744 31.7442 27.6744C31.2947 27.6744 30.9302 27.31 30.9302 26.8605Z" fill="#4D4D4D"/>
</svg>
