<svg width="35" height="32" viewBox="0 0 35 32" fill="none" xmlns="http://www.w3.org/2000/svg">
<path fill-rule="evenodd" clip-rule="evenodd" d="M0 2.59259C0 1.16278 1.16278 0 2.59259 0H20.7407C22.1706 0 23.3333 1.16278 23.3333 2.59259V14.2593H12.963C12.2474 14.2593 11.6667 14.84 11.6667 15.5556C11.6667 16.2711 12.2474 16.8519 12.963 16.8519H23.3333V28.5185C23.3333 29.9483 22.1706 31.1111 20.7407 31.1111H2.59259C1.16278 31.1111 0 29.9483 0 28.5185V2.59259ZM23.3333 16.8519H30.5744L27.602 19.8242C27.2634 20.1494 27.1269 20.6322 27.2454 21.0864C27.3638 21.5407 27.7185 21.8955 28.1728 22.0139C28.6271 22.1323 29.1099 21.9959 29.435 21.6573L34.6202 16.4721C35.1263 15.9658 35.1263 15.1453 34.6202 14.639L29.435 9.45385C29.191 9.20297 28.8559 9.06143 28.5059 9.06141C27.9784 9.06155 27.5036 9.38128 27.3051 9.87001C27.1066 10.3587 27.224 10.919 27.602 11.2869L30.5744 14.2593H23.3333V16.8519Z" fill="#4D4D4D"/>
</svg>
