<svg width="35" height="33" viewBox="0 0 35 33" fill="none" xmlns="http://www.w3.org/2000/svg">
<path fill-rule="evenodd" clip-rule="evenodd" d="M2.17172 0.0525841C2.34313 0.0181957 2.51748 0.000584507 2.69231 0H32.3077C33.5764 0.00172123 34.6718 0.888953 34.9369 2.12966C34.9378 2.1337 34.9388 2.1377 34.9398 2.14169L34.9418 2.14917C34.9439 2.15663 34.9459 2.16408 34.9474 2.17172C34.9818 2.34313 34.9994 2.51748 35 2.69231V18.8462C34.9983 20.1149 34.111 21.2102 32.8703 21.4754C32.8562 21.4785 32.8425 21.483 32.8283 21.4859C32.6569 21.5203 32.4825 21.5379 32.3077 21.5385H2.69231C1.42359 21.5367 0.328242 20.6495 0.063101 19.4088C0.0616653 19.4022 0.0599142 19.3958 0.0581633 19.3893L0.0581606 19.3893C0.0561394 19.3818 0.0541187 19.3744 0.0525841 19.3667C0.0181957 19.1953 0.00058449 19.021 0 18.8462V2.69231C0.00172123 1.42359 0.888953 0.328242 2.12966 0.063101C2.13624 0.0616653 2.1427 0.0599141 2.14916 0.0581631C2.15662 0.0561411 2.16408 0.0541193 2.17172 0.0525841ZM29.6154 2.69231H5.38462C5.38462 4.17923 4.17923 5.38462 2.69231 5.38462V16.1538C4.17923 16.1538 5.38462 17.3592 5.38462 18.8462H29.6154C29.6154 17.3592 30.8208 16.1538 32.3077 16.1538V5.38462C30.8208 5.38462 29.6154 4.17923 29.6154 2.69231ZM17.5 5.38462C14.5263 5.38462 12.1154 8.09712 12.1154 11.4423C12.1154 13.3565 12.9199 15.0433 14.153 16.1538H20.847C22.0801 15.0433 22.8846 13.3565 22.8846 11.4423C22.8846 8.09712 20.4737 5.38462 17.5 5.38462ZM5.38462 10.7692C5.38462 10.0258 5.98731 9.42308 6.73077 9.42308C7.47423 9.42308 8.07692 10.0258 8.07692 10.7692C8.07692 11.5127 7.47423 12.1154 6.73077 12.1154C5.98731 12.1154 5.38462 11.5127 5.38462 10.7692ZM28.2692 9.42308C27.5258 9.42308 26.9231 10.0258 26.9231 10.7692C26.9231 11.5127 27.5258 12.1154 28.2692 12.1154C29.0127 12.1154 29.6154 11.5127 29.6154 10.7692C29.6154 10.0258 29.0127 9.42308 28.2692 9.42308ZM32.0921 24.2308C32.1564 24.2199 32.2214 24.2138 32.2867 24.2124C32.3633 24.212 32.4398 24.2181 32.5154 24.2308H33.6538V25.5769V26.9231V29.5628C33.6539 29.6261 33.6495 29.6894 33.6407 29.7521C33.5688 31.1756 32.4102 32.3208 30.9615 32.3208C30.9409 32.3208 30.9211 32.3148 30.9013 32.3088C30.8847 32.3037 30.8682 32.2987 30.8511 32.2972C30.58 32.2846 30.468 32.2426 30.36 32.2021C30.3365 32.1933 30.3132 32.1846 30.2885 32.1762C30.131 32.1231 29.9688 32.0607 29.7731 31.9843C29.6398 31.9322 29.4926 31.8739 29.3308 31.8098C29.0177 31.6858 28.6503 31.5402 28.2245 31.377C26.9331 30.8816 25.1075 30.2247 22.761 29.5654C18.0681 28.247 11.3042 26.9231 2.69231 26.9231C2.20684 26.9299 1.75528 26.6749 1.51054 26.2556C1.2658 25.8362 1.2658 25.3176 1.51054 24.8983C1.75528 24.479 2.20684 24.2239 2.69231 24.2308C11.5804 24.2308 18.5993 25.5992 23.4893 26.973C25.573 27.5584 27.1827 28.1241 28.4691 28.6031C28.8691 27.6182 29.8325 26.9231 30.9615 26.9231V25.5769V24.2308H32.0921Z" fill="#3C3C3C"/>
</svg>
