<svg width="35" height="35" viewBox="0 0 35 35" fill="none" xmlns="http://www.w3.org/2000/svg">
<path fill-rule="evenodd" clip-rule="evenodd" d="M15.627 0.731445C15.697 0.309695 16.0647 0 16.4917 0H18.5083C18.937 0 19.3013 0.309695 19.373 0.731445L19.8687 3.71533C20.7215 3.86194 21.5464 4.08759 22.3398 4.38184L24.2642 2.04395C24.5354 1.71495 25.0074 1.62879 25.3784 1.84229L27.1216 2.85059C27.4908 3.06409 27.6549 3.51282 27.5044 3.91357L26.4448 6.74365C27.1018 7.29119 27.7088 7.89817 28.2563 8.55518L31.0864 7.49561C31.4854 7.34511 31.9359 7.50742 32.1494 7.87842L33.1577 9.62158C33.3712 9.99258 33.2868 10.4646 32.9561 10.7358L30.6182 12.6636C30.9119 13.4561 31.1382 14.2795 31.2847 15.1313L34.2686 15.627C34.6903 15.697 35 16.0647 35 16.4917V18.5083C35 18.937 34.6903 19.3013 34.2686 19.373L31.2847 19.8687C31.1381 20.7215 30.9124 21.5464 30.6182 22.3398L32.9561 24.2642C33.2851 24.5354 33.3712 25.0074 33.1577 25.3784L32.1494 27.1216C31.9359 27.4908 31.4872 27.6549 31.0864 27.5044L28.2563 26.4448C27.7088 27.1018 27.1018 27.7088 26.4448 28.2563L27.5044 31.0864C27.6549 31.4854 27.4926 31.9359 27.1216 32.1494L25.3784 33.1577C25.0074 33.3712 24.5354 33.2868 24.2642 32.9561L22.3364 30.6182C21.5439 30.9119 20.7205 31.1382 19.8687 31.2847L19.373 34.2686C19.303 34.6903 18.9353 35 18.5083 35H16.4917C16.063 35 15.6987 34.6903 15.627 34.2686L15.1313 31.2847C14.2785 31.1381 13.4536 30.9124 12.6602 30.6182L10.7358 32.9561C10.4646 33.2851 9.99258 33.3712 9.62158 33.1577L7.87842 32.1494C7.50917 31.9359 7.34511 31.4872 7.49561 31.0864L8.55518 28.2563C7.89817 27.7088 7.29119 27.1018 6.74365 26.4448L3.91357 27.5044C3.51457 27.6549 3.06409 27.4926 2.85059 27.1216L1.84229 25.3784C1.62879 25.0074 1.7132 24.5354 2.04395 24.2642L4.38184 22.3364C4.08813 21.5439 3.86175 20.7205 3.71533 19.8687L0.731445 19.373C0.309695 19.303 0 18.9353 0 18.5083V16.4917C0 16.063 0.309695 15.6987 0.731445 15.627L3.71533 15.1313C3.86175 14.2795 4.08813 13.4561 4.38184 12.6636L2.04395 10.7358C1.7132 10.4646 1.62704 9.99258 1.84229 9.62158L2.85059 7.87842C3.06409 7.50742 3.51457 7.34511 3.91357 7.49561L6.74365 8.55518C7.29119 7.89817 7.89817 7.29119 8.55518 6.74365L7.49561 3.91357C7.34511 3.51457 7.50742 3.06409 7.87842 2.85059L9.62158 1.84229C9.99258 1.62704 10.4646 1.7132 10.7358 2.04395L12.6636 4.38184C13.4561 4.08813 14.2795 3.86175 15.1313 3.71533L15.627 0.731445ZM15.75 12.5542V7.15723C10.7719 7.98665 7 12.2782 7 17.5C7 18.7897 7.2419 20.018 7.66309 21.1572L12.3389 18.4604C12.2798 18.1437 12.2501 17.8222 12.25 17.5C12.2517 15.2766 13.6537 13.2953 15.75 12.5542ZM19.25 7.15723C24.2281 7.98665 28 12.2782 28 17.5C28 18.7913 27.7556 20.0202 27.3335 21.1606L22.6577 18.457C22.7177 18.1415 22.7486 17.8212 22.75 17.5C22.7469 15.2778 21.3451 13.2983 19.25 12.5576V7.15723ZM25.6006 24.1958L20.9077 21.4854C19.9586 22.2992 18.7503 22.7477 17.5 22.75C16.249 22.7494 15.0393 22.3022 14.0889 21.4888L9.39941 24.1958C11.3218 26.523 14.2299 28 17.5 28C20.7701 28 23.6782 26.523 25.6006 24.1958Z" fill="#4D4D4D"/>
</svg>
