<svg width="35" height="35" viewBox="0 0 35 35" fill="none" xmlns="http://www.w3.org/2000/svg">
<path fill-rule="evenodd" clip-rule="evenodd" d="M0 17.2557C0 8.96907 5.66855 1.87203 13.6358 0C13.1655 5.82014 15.2418 11.4538 19.394 15.606C23.1647 19.3767 28.1693 21.4353 33.4127 21.4353C33.945 21.4353 34.4677 21.4175 35 21.3642C33.128 29.3226 26.0398 35 17.7443 35C7.95833 35 0 27.0417 0 17.2557ZM21.2759 13.7241C17.7181 10.1664 15.9343 5.35851 16.2714 0.381226C17.6022 1.33055 20.1929 3.68084 25.809 9.28805C31.3718 14.8598 33.6957 17.4155 34.6361 18.7286C29.6588 19.0835 24.8336 17.2819 21.2759 13.7241Z" fill="white"/>
</svg>
