<svg width="48" height="48" viewBox="0 0 48 48" fill="none" xmlns="http://www.w3.org/2000/svg">
<path fill-rule="evenodd" clip-rule="evenodd" d="M43.6364 0H4.36364C1.95273 0 0 1.95273 0 4.36364V43.6364C0 46.0473 1.95273 48 4.36364 48H43.6364C46.0473 48 48 46.0473 48 43.6364V4.36364C48 1.95273 46.0473 0 43.6364 0ZM6.54545 41.4545C5.34109 41.4545 4.36364 40.4771 4.36364 39.2727C4.36364 38.0684 5.34109 37.0909 6.54545 37.0909C7.74982 37.0909 8.72727 38.0684 8.72727 39.2727C8.72727 40.4771 7.74982 41.4545 6.54545 41.4545ZM4.36364 30.5455C4.36364 31.7498 5.34109 32.7273 6.54545 32.7273C7.74982 32.7273 8.72727 31.7498 8.72727 30.5455C8.72727 29.3411 7.74982 28.3636 6.54545 28.3636C5.34109 28.3636 4.36364 29.3411 4.36364 30.5455ZM15.2727 41.4545C14.0684 41.4545 13.0909 40.4771 13.0909 39.2727C13.0909 38.0684 14.0684 37.0909 15.2727 37.0909C16.4771 37.0909 17.4545 38.0684 17.4545 39.2727C17.4545 40.4771 16.4771 41.4545 15.2727 41.4545ZM13.0909 30.5455C13.0909 31.7498 14.0684 32.7273 15.2727 32.7273C16.4771 32.7273 17.4545 31.7498 17.4545 30.5455C17.4545 29.3411 16.4771 28.3636 15.2727 28.3636C14.0684 28.3636 13.0909 29.3411 13.0909 30.5455ZM15.2727 24C14.0684 24 13.0909 23.0225 13.0909 21.8182C13.0909 20.6138 14.0684 19.6364 15.2727 19.6364C16.4771 19.6364 17.4545 20.6138 17.4545 21.8182C17.4545 23.0225 16.4771 24 15.2727 24ZM21.8182 39.2727C21.8182 40.4771 22.7956 41.4545 24 41.4545C25.2044 41.4545 26.1818 40.4771 26.1818 39.2727C26.1818 38.0684 25.2044 37.0909 24 37.0909C22.7956 37.0909 21.8182 38.0684 21.8182 39.2727ZM24 32.7273C22.7956 32.7273 21.8182 31.7498 21.8182 30.5455C21.8182 29.3411 22.7956 28.3636 24 28.3636C25.2044 28.3636 26.1818 29.3411 26.1818 30.5455C26.1818 31.7498 25.2044 32.7273 24 32.7273ZM21.8182 21.8182C21.8182 23.0225 22.7956 24 24 24C25.2044 24 26.1818 23.0225 26.1818 21.8182C26.1818 20.6138 25.2044 19.6364 24 19.6364C22.7956 19.6364 21.8182 20.6138 21.8182 21.8182ZM32.7273 41.4545C31.5229 41.4545 30.5455 40.4771 30.5455 39.2727C30.5455 38.0684 31.5229 37.0909 32.7273 37.0909C33.9316 37.0909 34.9091 38.0684 34.9091 39.2727C34.9091 40.4771 33.9316 41.4545 32.7273 41.4545ZM30.5455 30.5455C30.5455 31.7498 31.5229 32.7273 32.7273 32.7273C33.9316 32.7273 34.9091 31.7498 34.9091 30.5455C34.9091 29.3411 33.9316 28.3636 32.7273 28.3636C31.5229 28.3636 30.5455 29.3411 30.5455 30.5455ZM30.5455 21.8182C30.5455 20.6138 31.5229 19.6364 32.7273 19.6364C33.9316 19.6364 34.9091 20.6138 34.9091 21.8182C34.9091 23.0225 33.9316 24 32.7273 24C31.5229 24 30.5455 23.0225 30.5455 21.8182ZM39.2727 30.5455C39.2727 31.7498 40.2502 32.7273 41.4545 32.7273C42.6589 32.7273 43.6364 31.7498 43.6364 30.5455C43.6364 29.3411 42.6589 28.3636 41.4545 28.3636C40.2502 28.3636 39.2727 29.3411 39.2727 30.5455ZM41.4545 24C40.2502 24 39.2727 23.0225 39.2727 21.8182C39.2727 20.6138 40.2502 19.6364 41.4545 19.6364C42.6589 19.6364 43.6364 20.6138 43.6364 21.8182C43.6364 23.0225 42.6589 24 41.4545 24ZM4.36364 13.0909H43.6364V4.36364H4.36364V13.0909Z" fill="white"/>
</svg>
