<svg width="267" height="35" viewBox="0 0 267 35" fill="none" xmlns="http://www.w3.org/2000/svg">
<rect x="0.571777" y="0.624481" width="164" height="33" fill="#CF2136"/>
<mask id="mask0" mask-type="alpha" maskUnits="userSpaceOnUse" x="0" y="0" width="165" height="34">
<rect x="0.571777" y="0.624481" width="164" height="33" fill="white"/>
</mask>
<g mask="url(#mask0)">
<path fill-rule="evenodd" clip-rule="evenodd" d="M83.7932 27.473L85.4732 22.703H93.4832L95.1032 27.473H99.9932L91.9832 6.05304H87.1532L79.0532 27.473H83.7932ZM92.2532 19.193H86.7032L89.4932 11.333H89.5532L92.2532 19.193ZM114.903 19.103V27.473H110.193V6.05304H121.743C122.703 6.05304 123.568 6.20804 124.338 6.51804C125.108 6.82804 125.768 7.25304 126.318 7.79304C126.868 8.33304 127.288 8.95804 127.578 9.66804C127.868 10.378 128.013 11.143 128.013 11.963C128.013 13.223 127.748 14.313 127.218 15.233C126.688 16.153 125.823 16.853 124.623 17.333V17.393C125.203 17.553 125.683 17.798 126.063 18.128C126.443 18.458 126.753 18.848 126.993 19.298C127.233 19.748 127.408 20.243 127.518 20.783C127.628 21.323 127.703 21.863 127.743 22.403C127.763 22.743 127.783 23.143 127.803 23.603C127.823 24.063 127.858 24.533 127.908 25.013C127.958 25.493 128.038 25.948 128.148 26.378C128.258 26.808 128.423 27.173 128.643 27.473H123.933C123.673 26.793 123.513 25.983 123.453 25.043C123.393 24.103 123.303 23.203 123.183 22.343C123.023 21.223 122.683 20.403 122.163 19.883C121.643 19.363 120.793 19.103 119.613 19.103H114.903ZM120.063 15.743H114.903V9.71304H120.063C121.143 9.71304 121.953 9.94804 122.493 10.418C123.033 10.888 123.303 11.643 123.303 12.683C123.303 13.763 123.033 14.543 122.493 15.023C121.953 15.503 121.143 15.743 120.063 15.743ZM149.643 10.013V27.473H144.933V10.013H138.513V6.05304H156.063V10.013H149.643Z" fill="white"/>
</g>
<path fill-rule="evenodd" clip-rule="evenodd" d="M230.663 27.0981C229.363 27.6681 227.883 27.9531 226.223 27.9531C224.583 27.9531 223.108 27.6681 221.798 27.0981C220.488 26.5281 219.383 25.7431 218.483 24.7431C217.583 23.7431 216.893 22.5681 216.413 21.2181C215.933 19.8681 215.693 18.4131 215.693 16.8531C215.693 15.2531 215.933 13.7681 216.413 12.3981C216.893 11.0281 217.583 9.83306 218.483 8.81306C219.383 7.79306 220.488 6.99306 221.798 6.41306C223.108 5.83306 224.583 5.54306 226.223 5.54306C227.883 5.54306 229.363 5.83306 230.663 6.41306C231.963 6.99306 233.063 7.79306 233.963 8.81306C234.863 9.83306 235.553 11.0281 236.033 12.3981C236.513 13.7681 236.753 15.2531 236.753 16.8531C236.753 18.4131 236.513 19.8681 236.033 21.2181C235.553 22.5681 234.863 23.7431 233.963 24.7431C233.063 25.7431 231.963 26.5281 230.663 27.0981ZM188.453 27.4731V23.5131H178.013V6.05306H173.303V27.4731H188.453ZM204.143 27.4731V6.05306H199.433V27.4731H204.143ZM226.223 24.0231C225.163 24.0231 224.263 23.8181 223.523 23.4081C222.783 22.9981 222.183 22.4531 221.723 21.7731C221.263 21.0931 220.928 20.3281 220.718 19.4781C220.508 18.6281 220.403 17.7531 220.403 16.8531C220.403 15.9131 220.508 15.0031 220.718 14.1231C220.928 13.2431 221.263 12.4581 221.723 11.7681C222.183 11.0781 222.783 10.5281 223.523 10.1181C224.263 9.70806 225.163 9.50306 226.223 9.50306C227.283 9.50306 228.183 9.70806 228.923 10.1181C229.663 10.5281 230.263 11.0781 230.723 11.7681C231.183 12.4581 231.518 13.2431 231.728 14.1231C231.938 15.0031 232.043 15.9131 232.043 16.8531C232.043 17.7531 231.938 18.6281 231.728 19.4781C231.518 20.3281 231.183 21.0931 230.723 21.7731C230.263 22.4531 229.663 22.9981 228.923 23.4081C228.183 23.8181 227.283 24.0231 226.223 24.0231ZM252.713 13.1331V27.4731H248.303V6.05306H252.983L261.923 20.4231H261.983V6.05306H266.393V27.4731H261.683L252.773 13.1331H252.713Z" fill="#1C1C1C"/>
</svg>
