<svg width="28" height="28" viewBox="0 0 28 28" fill="none" xmlns="http://www.w3.org/2000/svg">
<path fill-rule="evenodd" clip-rule="evenodd" d="M2.80004 5.60684C5.35561 2.20392 9.42287 0 13.9999 0C21.7233 0 27.9998 6.27656 27.9998 14C28.0034 14.2524 27.8707 14.4873 27.6527 14.6145C27.4346 14.7418 27.165 14.7418 26.9469 14.6145C26.7289 14.4873 26.5962 14.2524 26.5998 14C26.5998 7.03324 20.9666 1.4 13.9999 1.4C9.62832 1.4 5.79034 3.62597 3.53011 7H8.39999C8.65243 6.99643 8.88724 7.12906 9.0145 7.34711C9.14176 7.56516 9.14176 7.83484 9.0145 8.05289C8.88724 8.27094 8.65243 8.40357 8.39999 8.4H2.30786H1.40005V1.4C1.39477 1.01393 1.70305 0.696464 2.08911 0.69043C2.27831 0.687474 2.46065 0.761238 2.59459 0.894914C2.72852 1.02859 2.80263 1.21079 2.80004 1.4V5.60684ZM6.69946e-05 14C-0.00521986 13.6139 0.303065 13.2965 0.689123 13.2904C0.878326 13.2875 1.06067 13.3612 1.1946 13.4949C1.32853 13.6286 1.40264 13.8108 1.40005 14C1.40005 20.9668 7.03324 26.6 13.9999 26.6C18.3719 26.6 22.2101 24.3738 24.4698 21L19.5999 21.0014C19.3474 21.0049 19.1126 20.8723 18.9854 20.6543C18.8581 20.4362 18.8581 20.1665 18.9854 19.9485C19.1126 19.7304 19.3474 19.5978 19.5999 19.6014L25.5949 19.6C25.6812 19.5836 25.7698 19.5836 25.8561 19.6H26.5998V26.6C26.6034 26.8524 26.4707 27.0873 26.2527 27.2145C26.0347 27.3418 25.765 27.3418 25.5469 27.2145C25.3289 27.0873 25.1963 26.8524 25.1998 26.6V22.3904C22.6451 25.7944 18.5782 28 13.9999 28C6.27657 28 6.69946e-05 21.7234 6.69946e-05 14Z" fill="#CF2136"/>
</svg>
