<svg width="33" height="20" viewBox="0 0 33 20" fill="none" xmlns="http://www.w3.org/2000/svg">
<path fill-rule="evenodd" clip-rule="evenodd" d="M1.50022 3.4695e-06C1.04943 -0.00637189 0.630123 0.230473 0.402865 0.619845C0.175607 1.00922 0.175607 1.49079 0.402865 1.88016C0.630123 2.26953 1.04943 2.50638 1.50022 2.5H31.5002C31.951 2.50638 32.3703 2.26953 32.5976 1.88016C32.8248 1.49079 32.8248 1.00922 32.5976 0.619845C32.3703 0.230473 31.951 -0.00637189 31.5002 3.4695e-06H1.50022ZM1.50022 8.75C1.04943 8.74363 0.630123 8.98047 0.402865 9.36984C0.175607 9.75922 0.175607 10.2408 0.402865 10.6302C0.630123 11.0195 1.04943 11.2564 1.50022 11.25H31.5002C31.951 11.2564 32.3703 11.0195 32.5976 10.6302C32.8248 10.2408 32.8248 9.75922 32.5976 9.36984C32.3703 8.98047 31.951 8.74363 31.5002 8.75H1.50022ZM0.402865 18.1198C0.630123 17.7305 1.04943 17.4936 1.50022 17.5H31.5002C31.951 17.4936 32.3703 17.7305 32.5976 18.1198C32.8248 18.5092 32.8248 18.9908 32.5976 19.3802C32.3703 19.7695 31.951 20.0064 31.5002 20H1.50022C1.04943 20.0064 0.630123 19.7695 0.402865 19.3802C0.175607 18.9908 0.175607 18.5092 0.402865 18.1198Z" fill="#FFFFFF"/>
</svg>
