<svg width="22" height="20" viewBox="0 0 22 20" fill="none" xmlns="http://www.w3.org/2000/svg">
<path fill-rule="evenodd" clip-rule="evenodd" d="M11 0C10.2964 0 9.69359 0.440629 9.43825 1.06827L0.254507 17.3454V17.3471C0.0887633 17.6215 0.000636442 17.9379 0 18.2609C0 19.2214 0.757672 20 1.69231 20C1.73202 19.9997 1.77171 19.998 1.8113 19.9949L1.8146 20H11H20.1854L20.1887 19.9932C20.2283 19.9969 20.268 19.9992 20.3077 20C21.2423 20 22 19.2214 22 18.2609C21.9997 17.9373 21.9115 17.6203 21.7455 17.3454L21.7323 17.3217L21.7306 17.32L12.5617 1.06827C12.3064 0.440629 11.7036 0 11 0ZM12.0263 7.26902L11.8561 12.8974H10.1439L9.97371 7.26902H12.0263ZM12.1155 15.659C12.1155 15.0024 11.6988 14.6179 11.0033 14.6179C10.3018 14.6179 9.88281 15.0024 9.88281 15.659C9.88281 16.3033 10.3027 16.6865 11.0033 16.6865C11.6988 16.6865 12.1155 16.3033 12.1155 15.659Z" fill="#E22432"/>
</svg>
