<svg width="30" height="35" viewBox="0 0 30 35" fill="none" xmlns="http://www.w3.org/2000/svg">
<path fill-rule="evenodd" clip-rule="evenodd" d="M13.4615 1.34615C13.4615 0.603077 14.0646 0 14.8077 0C15.5508 0 16.1538 0.603077 16.1538 1.34615V6.73077H13.4615V1.34615ZM13.4615 6.73077H2.69231C1.20481 6.73077 0 7.93558 0 9.42308V32.3077C0 33.7952 1.20481 35 2.69231 35H26.9231C28.4106 35 29.6154 33.7952 29.6154 32.3077V9.42308C29.6154 7.93558 28.4106 6.73077 26.9231 6.73077H16.1538V23.6734L19.2405 20.5867C19.7669 20.0603 20.6177 20.0603 21.1441 20.5867C21.6704 21.113 21.6704 21.9639 21.1441 22.4902L15.7595 27.8749C15.497 28.1374 15.1523 28.2692 14.8077 28.2692C14.4631 28.2692 14.1184 28.1374 13.8559 27.8749L8.4713 22.4902C7.94496 21.9639 7.94496 21.113 8.4713 20.5867C8.99765 20.0603 9.8485 20.0603 10.3748 20.5867L13.4615 23.6734V6.73077Z" fill="#CF2136"/>
</svg>
